<svg xmlns="http://www.w3.org/2000/svg" version="1.1" xmlns:xlink="http://www.w3.org/1999/xlink" xmlns:svgjs="http://svgjs.dev/svgjs" viewBox="0 0 8.550773816532933 8.435930966196091"><g transform="matrix(1,0,0,1,0.7077599551414666,6.502829214179625)"><g><path d=" M 0.3369140625 0.01611328125 Q 0.3544921875 0.01611328125 0.369140625 0.03076171875 Q 0.3837890625 0.04541015625 0.3922119140625 0.0919189453125 Q 0.400634765625 0.138427734375 0.4178466796875 0.224853515625 Q 0.43505859375 0.311279296875 0.456298828125 0.409423828125 Q 0.4775390625 0.507568359375 0.5009765625 0.6119384765625 Q 0.5244140625 0.71630859375 0.5478515625 0.814453125 Q 0.604248046875 1.04443359375 0.6357421875 1.150634765625 Q 0.64306640625 1.177734375 0.6317138671875 1.19384765625 Q 0.620361328125 1.2099609375 0.6064453125 1.2099609375 Q 0.592529296875 1.2099609375 0.5811767578125 1.201904296875 Q 0.56982421875 1.19384765625 0.56103515625 1.154296875 Q 0.55224609375 1.11474609375 0.532470703125 1.026123046875 Q 0.5126953125 0.9375 0.489990234375 0.835693359375 Q 0.4892578125 0.831298828125 0.488525390625 0.82763671875 Q 0.438720703125 0.825439453125 0.347900390625 0.825439453125 Q 0.240966796875 0.825439453125 0.1845703125 0.828369140625 Q 0.183837890625 0.832763671875 0.18310546875 0.837158203125 Q 0.138427734375 1.052490234375 0.1171875 1.17041015625 Q 0.10986328125 1.207763671875 0.078369140625 1.207763671875 Q 0.04541015625 1.207763671875 0.0380859375 1.175537109375 Q 0.035888671875 1.166015625 0.04248046875 1.1455078125 Q 0.049072265625 1.125 0.0618896484375 1.0748291015625 Q 0.07470703125 1.024658203125 0.0897216796875 0.9598388671875 Q 0.104736328125 0.89501953125 0.12158203125 0.818115234375 Q 0.138427734375 0.7412109375 0.156005859375 0.659912109375 Q 0.173583984375 0.57861328125 0.191162109375 0.4962158203125 Q 0.208740234375 0.413818359375 0.224853515625 0.3369140625 Q 0.240966796875 0.260009765625 0.2552490234375 0.192626953125 Q 0.26953125 0.125244140625 0.2783203125 0.085693359375 Q 0.292236328125 0.01611328125 0.3369140625 0.01611328125 M 0.198486328125 0.76025390625 Q 0.254150390625 0.76318359375 0.3486328125 0.76318359375 Q 0.427001953125 0.76318359375 0.473876953125 0.760986328125 Q 0.45849609375 0.6943359375 0.443115234375 0.6240234375 Q 0.4189453125 0.514892578125 0.39697265625 0.412353515625 Q 0.3603515625 0.24462890625 0.333984375 0.117919921875 Q 0.317138671875 0.2021484375 0.28564453125 0.34716796875 Q 0.24462890625 0.54052734375 0.223388671875 0.6416015625 Q 0.2109375 0.702392578125 0.198486328125 0.76025390625 M 0.92578125 0.01904296875 Q 0.9462890625 0.01904296875 1.189453125 0.01318359375 Q 1.22314453125 0.01318359375 1.235595703125 0.038818359375 Q 1.238525390625 0.046142578125 1.238525390625 0.0556640625 Q 1.238525390625 0.065185546875 1.2275390625 0.0750732421875 Q 1.216552734375 0.0849609375 1.1865234375 0.084228515625 Q 1.156494140625 0.08349609375 1.1282958984375 0.08203125 Q 1.10009765625 0.08056640625 1.075927734375 0.079833984375 Q 1.03271484375 0.078369140625 1.001953125 0.0791015625 Q 0.99609375 0.24755859375 0.99609375 0.444580078125 Q 0.99609375 0.655517578125 0.9964599609375 0.7335205078125 Q 0.996826171875 0.8115234375 0.998291015625 0.882568359375 Q 1.00048828125 1.064208984375 1.002685546875 1.152099609375 Q 1.00341796875 1.177001953125 0.9913330078125 1.1890869140625 Q 0.979248046875 1.201171875 0.9649658203125 1.201171875 Q 0.95068359375 1.201171875 0.9371337890625 1.1898193359375 Q 0.923583984375 1.178466796875 0.923583984375 1.15576171875 L 0.9228515625 1.059814453125 L 0.93017578125 0.3603515625 Q 0.93017578125 0.164794921875 0.925048828125 0.0791015625 Q 0.88623046875 0.078369140625 0.832763671875 0.08203125 Q 0.769775390625 0.08642578125 0.7415771484375 0.0882568359375 Q 0.71337890625 0.090087890625 0.70166015625 0.0791015625 Q 0.68994140625 0.068115234375 0.68994140625 0.0538330078125 Q 0.68994140625 0.03955078125 0.70166015625 0.025634765625 Q 0.71337890625 0.01171875 0.7393798828125 0.0128173828125 Q 0.765380859375 0.013916015625 0.784423828125 0.0146484375 Q 0.803466796875 0.015380859375 0.8177490234375 0.01611328125 Q 0.83203125 0.016845703125 0.843017578125 0.017578125 Q 0.85400390625 0.018310546875 0.8653564453125 0.0186767578125 Q 0.876708984375 0.01904296875 0.891357421875 0.01904296875 L 0.92578125 0.01904296875 M 1.6435546875 0.944091796875 L 1.648681640625 1.1572265625 Q 1.648681640625 1.190185546875 1.6171875 1.201904296875 Q 1.609130859375 1.204833984375 1.59814453125 1.204833984375 Q 1.587158203125 1.204833984375 1.57470703125 1.1927490234375 Q 1.562255859375 1.1806640625 1.564453125 1.1546630859375 Q 1.566650390625 1.128662109375 1.569580078125 1.10302734375 Q 1.572509765625 1.077392578125 1.57470703125 1.051025390625 Q 1.579833984375 0.989501953125 1.579833984375 0.955078125 Q 1.579833984375 0.920654296875 1.5791015625 0.895751953125 Q 1.578369140625 0.870849609375 1.576904296875 0.844482421875 Q 1.576171875 0.8232421875 1.57470703125 0.796875 Q 1.550537109375 0.7353515625 1.521240234375 0.665771484375 Q 1.48388671875 0.574951171875 1.443603515625 0.476806640625 Q 1.278076171875 0.078369140625 1.278076171875 0.04541015625 Q 1.278076171875 0.027099609375 1.2890625 0.01611328125 Q 1.300048828125 0.005126953125 1.3172607421875 0.00439453125 Q 1.33447265625 0.003662109375 1.343994140625 0.0157470703125 Q 1.353515625 0.02783203125 1.3721923828125 0.09228515625 Q 1.390869140625 0.15673828125 1.427490234375 0.2581787109375 Q 1.464111328125 0.359619140625 1.50146484375 0.451904296875 Q 1.550537109375 0.57421875 1.612060546875 0.7119140625 Q 1.623046875 0.681884765625 1.635498046875 0.648193359375 Q 1.65673828125 0.59326171875 1.6790771484375 0.5328369140625 Q 1.701416015625 0.472412109375 1.7244873046875 0.4090576171875 Q 1.74755859375 0.345703125 1.768798828125 0.284912109375 Q 1.820068359375 0.13623046875 1.833984375 0.0867919921875 Q 1.847900390625 0.037353515625 1.857421875 0.0186767578125 Q 1.866943359375 0 1.885986328125 0 Q 1.921142578125 0 1.921142578125 0.034423828125 Q 1.921142578125 0.060791015625 1.8687744140625 0.197021484375 Q 1.81640625 0.333251953125 1.8013916015625 0.3760986328125 Q 1.786376953125 0.4189453125 1.7724609375 0.4566650390625 Q 1.758544921875 0.494384765625 1.742431640625 0.5372314453125 Q 1.726318359375 0.580078125 1.7091064453125 0.6251220703125 Q 1.69189453125 0.670166015625 1.676513671875 0.711181640625 Q 1.658935546875 0.755126953125 1.647216796875 0.78515625 Q 1.6435546875 0.91552734375 1.6435546875 0.944091796875 M 2.158447265625 0.88037109375 Q 2.164306640625 1.056884765625 2.167236328125 1.152099609375 Q 2.16796875 1.177001953125 2.1551513671875 1.1890869140625 Q 2.142333984375 1.201171875 2.1273193359375 1.201171875 Q 2.1123046875 1.201171875 2.1005859375 1.1898193359375 Q 2.0888671875 1.178466796875 2.0888671875 1.153564453125 L 2.0888671875 0.988037109375 L 2.088134765625 0.760986328125 L 2.088134765625 0.557373046875 Q 2.088134765625 0.358154296875 2.0848388671875 0.303955078125 Q 2.08154296875 0.249755859375 2.080078125 0.221923828125 Q 2.07861328125 0.194091796875 2.076416015625 0.1651611328125 Q 2.07421875 0.13623046875 2.0723876953125 0.1083984375 Q 2.070556640625 0.08056640625 2.0760498046875 0.0703125 Q 2.08154296875 0.06005859375 2.089599609375 0.0552978515625 Q 2.09765625 0.050537109375 2.1064453125 0.049072265625 Q 2.115234375 0.047607421875 2.143798828125 0.040283203125 Q 2.23388671875 0.018310546875 2.303466796875 0.018310546875 Q 2.373046875 0.018310546875 2.42138671875 0.035888671875 Q 2.4697265625 0.053466796875 2.504150390625 0.08935546875 Q 2.577392578125 0.164794921875 2.577392578125 0.3046875 Q 2.577392578125 0.4951171875 2.444091796875 0.654052734375 Q 2.33642578125 0.7822265625 2.158447265625 0.88037109375 M 2.15625 0.810791015625 Q 2.510009765625 0.618896484375 2.510009765625 0.311279296875 Q 2.510009765625 0.14208984375 2.392822265625 0.09375 Q 2.3056640625 0.057861328125 2.18115234375 0.100341796875 Q 2.16650390625 0.10546875 2.1533203125 0.110595703125 Q 2.148193359375 0.23876953125 2.148193359375 0.374267578125 L 2.148193359375 0.595458984375 Q 2.148193359375 0.609375 2.14892578125 0.62255859375 Q 2.149658203125 0.6357421875 2.1500244140625 0.6507568359375 Q 2.150390625 0.665771484375 2.1514892578125 0.6895751953125 Q 2.152587890625 0.71337890625 2.154052734375 0.749267578125 Q 2.15478515625 0.77490234375 2.15625 0.810791015625 M 2.8150634765625 0.2420654296875 Q 2.814697265625 0.281982421875 2.814697265625 0.563232421875 Q 2.814697265625 0.844482421875 2.823486328125 1.155029296875 Q 2.82421875 1.178466796875 2.8099365234375 1.19091796875 Q 2.795654296875 1.203369140625 2.7799072265625 1.203369140625 Q 2.76416015625 1.203369140625 2.7520751953125 1.1923828125 Q 2.739990234375 1.181396484375 2.741455078125 1.143310546875 Q 2.742919921875 1.105224609375 2.744384765625 1.037841796875 Q 2.745849609375 0.970458984375 2.747314453125 0.894287109375 Q 2.750244140625 0.743408203125 2.750244140625 0.6126708984375 Q 2.750244140625 0.48193359375 2.7498779296875 0.4090576171875 Q 2.74951171875 0.336181640625 2.748046875 0.274658203125 Q 2.745849609375 0.138427734375 2.739990234375 0.05712890625 Q 2.73779296875 0.03369140625 2.7484130859375 0.0223388671875 Q 2.759033203125 0.010986328125 2.77587890625 0.010986328125 Q 2.792724609375 0.010986328125 2.807373046875 0.0223388671875 Q 2.822021484375 0.03369140625 2.8209228515625 0.060791015625 Q 2.81982421875 0.087890625 2.8187255859375 0.1142578125 Q 2.817626953125 0.140625 2.8165283203125 0.17138671875 Q 2.8154296875 0.2021484375 2.8150634765625 0.2420654296875 M 3.5712890625 0.044677734375 Q 3.57275390625 0.056396484375 3.55517578125 0.0977783203125 Q 3.53759765625 0.13916015625 3.47900390625 0.24462890625 Q 3.4248046875 0.342041015625 3.353759765625 0.4716796875 Q 3.397705078125 0.59912109375 3.45263671875 0.73388671875 Q 3.51123046875 0.87890625 3.5361328125 0.9404296875 Q 3.595458984375 1.087646484375 3.609375 1.1209716796875 Q 3.623291015625 1.154296875 3.621826171875 1.1656494140625 Q 3.620361328125 1.177001953125 3.614501953125 1.185791015625 Q 3.60205078125 1.203369140625 3.585205078125 1.203369140625 Q 3.554443359375 1.203369140625 3.542724609375 1.17333984375 Q 3.38671875 0.724365234375 3.314208984375 0.541259765625 Q 3.22705078125 0.70458984375 3.1640625 0.80419921875 Q 3.1640625 1.02099609375 3.1669921875 1.155029296875 Q 3.167724609375 1.178466796875 3.1541748046875 1.19091796875 Q 3.140625 1.203369140625 3.12451171875 1.203369140625 Q 3.1083984375 1.203369140625 3.0955810546875 1.1923828125 Q 3.082763671875 1.181396484375 3.084228515625 1.1407470703125 Q 3.085693359375 1.10009765625 3.087890625 1.02392578125 Q 3.090087890625 0.94775390625 3.09228515625 0.861328125 Q 3.0966796875 0.6884765625 3.0966796875 0.5526123046875 Q 3.0966796875 0.416748046875 3.095947265625 0.3555908203125 Q 3.09521484375 0.29443359375 3.09375 0.243896484375 Q 3.090087890625 0.158203125 3.08056640625 0.059326171875 Q 3.078369140625 0.035888671875 3.0926513671875 0.0245361328125 Q 3.10693359375 0.01318359375 3.1248779296875 0.01318359375 Q 3.142822265625 0.01318359375 3.1578369140625 0.0245361328125 Q 3.1728515625 0.035888671875 3.172119140625 0.059326171875 Q 3.1640625 0.24755859375 3.1640625 0.699462890625 Q 3.3427734375 0.394775390625 3.4541015625 0.129638671875 Q 3.47607421875 0.07763671875 3.4859619140625 0.0494384765625 Q 3.495849609375 0.021240234375 3.5064697265625 0.013916015625 Q 3.51708984375 0.006591796875 3.528076171875 0.006591796875 Q 3.5390625 0.006591796875 3.5482177734375 0.0113525390625 Q 3.557373046875 0.01611328125 3.5635986328125 0.0245361328125 Q 3.56982421875 0.032958984375 3.5712890625 0.044677734375 M 4.210693359375 0.388916015625 L 4.2099609375 0.273193359375 Q 4.2099609375 0.245361328125 4.2095947265625 0.2135009765625 Q 4.209228515625 0.181640625 4.2088623046875 0.1446533203125 Q 4.20849609375 0.107666015625 4.207763671875 0.0728759765625 Q 4.20703125 0.0380859375 4.22021484375 0.027099609375 Q 4.2333984375 0.01611328125 4.248046875 0.01611328125 Q 4.2626953125 0.01611328125 4.2747802734375 0.027099609375 Q 4.286865234375 0.0380859375 4.2861328125 0.0615234375 Q 4.2744140625 0.468017578125 4.2744140625 0.69873046875 Q 4.2744140625 1.070068359375 4.279541015625 1.1572265625 Q 4.281005859375 1.1806640625 4.2689208984375 1.1923828125 Q 4.2568359375 1.2041015625 4.2425537109375 1.2041015625 Q 4.228271484375 1.2041015625 4.2169189453125 1.1927490234375 Q 4.20556640625 1.181396484375 4.206298828125 1.157958984375 Q 4.209228515625 0.9169921875 4.210693359375 0.744140625 Q 4.1455078125 0.73828125 4.03271484375 0.73828125 Q 3.91552734375 0.73828125 3.859130859375 0.744873046875 Q 3.85986328125 0.966064453125 3.8642578125 1.153564453125 Q 3.864990234375 1.177734375 3.851806640625 1.190185546875 Q 3.838623046875 1.20263671875 3.8236083984375 1.20263671875 Q 3.80859375 1.20263671875 3.796875 1.1912841796875 Q 3.78515625 1.179931640625 3.78662109375 1.1396484375 Q 3.7880859375 1.099365234375 3.78955078125 1.02392578125 Q 3.791015625 0.948486328125 3.79248046875 0.863525390625 Q 3.7939453125 0.720703125 3.7939453125 0.5712890625 Q 3.7939453125 0.421875 3.7935791015625 0.3607177734375 Q 3.793212890625 0.299560546875 3.79248046875 0.2490234375 Q 3.790283203125 0.169921875 3.78369140625 0.06591796875 Q 3.7822265625 0.04248046875 3.79541015625 0.0311279296875 Q 3.80859375 0.019775390625 3.82470703125 0.019775390625 Q 3.8408203125 0.019775390625 3.85400390625 0.0311279296875 Q 3.8671875 0.04248046875 3.86572265625 0.0765380859375 Q 3.8642578125 0.110595703125 3.86279296875 0.158935546875 Q 3.861328125 0.207275390625 3.860595703125 0.2655029296875 Q 3.85986328125 0.32373046875 3.85986328125 0.394775390625 Q 3.859130859375 0.46142578125 3.859130859375 0.67529296875 Q 3.907470703125 0.6826171875 4.0341796875 0.6826171875 Q 4.15576171875 0.6826171875 4.210693359375 0.67529296875 Q 4.210693359375 0.6474609375 4.210693359375 0.621826171875 L 4.210693359375 0.388916015625 M 4.767333984375 1.22021484375 Q 4.6142578125 1.22021484375 4.5421142578125 1.06201171875 Q 4.469970703125 0.90380859375 4.469970703125 0.5947265625 Q 4.469970703125 0.350830078125 4.552734375 0.185302734375 Q 4.59375 0.104736328125 4.65234375 0.0567626953125 Q 4.7109375 0.0087890625 4.7874755859375 0.0087890625 Q 4.864013671875 0.0087890625 4.921142578125 0.0487060546875 Q 4.978271484375 0.088623046875 5.015625 0.1640625 Q 5.0888671875 0.31201171875 5.09033203125 0.5947265625 Q 5.091796875 0.89208984375 5.00537109375 1.0576171875 Q 4.92041015625 1.22021484375 4.767333984375 1.22021484375 M 4.865478515625 0.0948486328125 Q 4.8310546875 0.0732421875 4.789306640625 0.0732421875 Q 4.74755859375 0.0732421875 4.7138671875 0.0948486328125 Q 4.68017578125 0.116455078125 4.6527099609375 0.154541015625 Q 4.625244140625 0.192626953125 4.6043701171875 0.2442626953125 Q 4.58349609375 0.2958984375 4.56884765625 0.355224609375 Q 4.540283203125 0.476806640625 4.540283203125 0.5980224609375 Q 4.540283203125 0.71923828125 4.5494384765625 0.80126953125 Q 4.55859375 0.88330078125 4.57470703125 0.9429931640625 Q 4.5908203125 1.002685546875 4.6131591796875 1.0426025390625 Q 4.635498046875 1.08251953125 4.6611328125 1.106689453125 Q 4.708740234375 1.14990234375 4.774658203125 1.14990234375 Q 4.969482421875 1.14990234375 5.01123046875 0.791748046875 Q 5.020751953125 0.709716796875 5.020751953125 0.624755859375 Q 5.020751953125 0.539794921875 5.015625 0.47607421875 Q 5.010498046875 0.412353515625 4.9991455078125 0.3533935546875 Q 4.98779296875 0.29443359375 4.9698486328125 0.2431640625 Q 4.951904296875 0.19189453125 4.9259033203125 0.1541748046875 Q 4.89990234375 0.116455078125 4.865478515625 0.0948486328125 M 5.291015625 0.823974609375 L 5.29248046875 0.51416015625 Q 5.29248046875 0.25048828125 5.275634765625 0.0673828125 Q 5.2734375 0.0439453125 5.287353515625 0.0325927734375 Q 5.30126953125 0.021240234375 5.3192138671875 0.021240234375 Q 5.337158203125 0.021240234375 5.351806640625 0.0325927734375 Q 5.366455078125 0.0439453125 5.364990234375 0.0823974609375 Q 5.363525390625 0.120849609375 5.3616943359375 0.1798095703125 Q 5.35986328125 0.23876953125 5.3583984375 0.3046875 Q 5.35546875 0.4365234375 5.35546875 0.54345703125 Q 5.35546875 0.650390625 5.3558349609375 0.6895751953125 Q 5.356201171875 0.728759765625 5.35693359375 0.765380859375 Q 5.360595703125 0.960205078125 5.37890625 1.01220703125 Q 5.397216796875 1.064208984375 5.42138671875 1.092041015625 Q 5.4697265625 1.147705078125 5.5458984375 1.147705078125 Q 5.624267578125 1.147705078125 5.675537109375 1.08984375 Q 5.728271484375 1.02978515625 5.737060546875 0.922119140625 Q 5.7451171875 0.790283203125 5.7451171875 0.71044921875 Q 5.7451171875 0.630615234375 5.7447509765625 0.5723876953125 Q 5.744384765625 0.51416015625 5.742919921875 0.441650390625 Q 5.737060546875 0.230712890625 5.731201171875 0.06298828125 Q 5.73046875 0.03955078125 5.74365234375 0.028564453125 Q 5.7568359375 0.017578125 5.773681640625 0.017578125 Q 5.79052734375 0.017578125 5.804443359375 0.028564453125 Q 5.818359375 0.03955078125 5.817626953125 0.06298828125 Q 5.814697265625 0.172119140625 5.8143310546875 0.2783203125 Q 5.81396484375 0.384521484375 5.813232421875 0.4892578125 Q 5.811767578125 0.743408203125 5.8037109375 0.8543701171875 Q 5.795654296875 0.96533203125 5.7791748046875 1.021728515625 Q 5.7626953125 1.078125 5.73193359375 1.1220703125 Q 5.6630859375 1.22021484375 5.546630859375 1.22021484375 Q 5.35400390625 1.22021484375 5.306396484375 1.007080078125 Q 5.291015625 0.9404296875 5.291015625 0.8583984375 L 5.291015625 0.823974609375 M 6.035888671875 0.8671875 Q 6.0615234375 0.8671875 6.068115234375 0.886962890625 Q 6.07470703125 0.90673828125 6.07470703125 0.9521484375 Q 6.07470703125 0.99755859375 6.087158203125 1.037109375 Q 6.099609375 1.07666015625 6.12158203125 1.103759765625 Q 6.166259765625 1.157958984375 6.245361328125 1.157958984375 Q 6.324462890625 1.157958984375 6.371337890625 1.0997314453125 Q 6.418212890625 1.04150390625 6.418212890625 0.932373046875 Q 6.418212890625 0.78662109375 6.29443359375 0.673095703125 Q 6.25927734375 0.640869140625 6.2222900390625 0.609375 Q 6.185302734375 0.577880859375 6.150146484375 0.544189453125 Q 6.114990234375 0.510498046875 6.087158203125 0.469482421875 Q 6.0263671875 0.37939453125 6.0263671875 0.264404296875 Q 6.0263671875 0.146484375 6.095947265625 0.073974609375 Q 6.164794921875 0.002197265625 6.268798828125 0.002197265625 Q 6.358154296875 0.002197265625 6.415283203125 0.062255859375 Q 6.47900390625 0.131103515625 6.473876953125 0.252685546875 Q 6.47314453125 0.258544921875 6.4735107421875 0.26513671875 Q 6.473876953125 0.271728515625 6.4720458984375 0.2900390625 Q 6.47021484375 0.308349609375 6.4566650390625 0.3226318359375 Q 6.443115234375 0.3369140625 6.4273681640625 0.3369140625 Q 6.41162109375 0.3369140625 6.400634765625 0.3226318359375 Q 6.3896484375 0.308349609375 6.393310546875 0.284912109375 Q 6.40283203125 0.2314453125 6.40283203125 0.2039794921875 Q 6.40283203125 0.176513671875 6.3929443359375 0.151611328125 Q 6.383056640625 0.126708984375 6.36474609375 0.107666015625 Q 6.3251953125 0.0673828125 6.26220703125 0.0673828125 Q 6.192626953125 0.0673828125 6.148681640625 0.114990234375 Q 6.100341796875 0.167724609375 6.100341796875 0.24462890625 Q 6.100341796875 0.321533203125 6.1171875 0.3687744140625 Q 6.134033203125 0.416015625 6.1614990234375 0.4541015625 Q 6.18896484375 0.4921875 6.22412109375 0.523681640625 Q 6.25927734375 0.55517578125 6.2955322265625 0.5859375 Q 6.331787109375 0.61669921875 6.366943359375 0.6492919921875 Q 6.402099609375 0.681884765625 6.429931640625 0.721435546875 Q 6.49072265625 0.810791015625 6.49072265625 0.92724609375 Q 6.49072265625 1.0634765625 6.42041015625 1.144775390625 Q 6.350830078125 1.225341796875 6.234375 1.225341796875 Q 6.1259765625 1.225341796875 6.057861328125 1.141845703125 Q 5.993408203125 1.0634765625 5.993408203125 0.96533203125 Q 5.993408203125 0.8671875 6.035888671875 0.8671875 M 6.767578125 0.80126953125 L 6.76904296875 1.061279296875 Q 6.76904296875 1.096435546875 6.76904296875 1.121337890625 Q 6.769775390625 1.13232421875 6.769775390625 1.140380859375 Q 6.954345703125 1.140380859375 7.01513671875 1.134521484375 Q 7.078125 1.1279296875 7.08837890625 1.130859375 Q 7.0986328125 1.1337890625 7.10595703125 1.140380859375 Q 7.12060546875 1.153564453125 7.12060546875 1.1693115234375 Q 7.12060546875 1.18505859375 7.106689453125 1.1964111328125 Q 7.0927734375 1.207763671875 7.06787109375 1.206298828125 Q 6.94775390625 1.19677734375 6.85107421875 1.2030029296875 Q 6.75439453125 1.209228515625 6.74267578125 1.2110595703125 Q 6.73095703125 1.212890625 6.7218017578125 1.2110595703125 Q 6.712646484375 1.209228515625 6.705322265625 1.203369140625 Q 6.6884765625 1.19091796875 6.68994140625 1.166748046875 Q 6.700927734375 0.955078125 6.700927734375 0.6983642578125 Q 6.700927734375 0.441650390625 6.7012939453125 0.3753662109375 Q 6.70166015625 0.30908203125 6.70166015625 0.254150390625 Q 6.7001953125 0.13623046875 6.696533203125 0.0875244140625 Q 6.69287109375 0.038818359375 6.6983642578125 0.029296875 Q 6.703857421875 0.019775390625 6.7119140625 0.015380859375 Q 6.722900390625 0.01025390625 6.73974609375 0.01318359375 Q 6.7705078125 0.018310546875 6.821044921875 0.018310546875 Q 6.91845703125 0.018310546875 6.9539794921875 0.0142822265625 Q 6.989501953125 0.01025390625 6.999755859375 0.0135498046875 Q 7.010009765625 0.016845703125 7.0166015625 0.022705078125 Q 7.03125 0.034423828125 7.03125 0.05126953125 Q 7.03125 0.068115234375 7.01806640625 0.0791015625 Q 7.0048828125 0.090087890625 6.982177734375 0.0889892578125 Q 6.95947265625 0.087890625 6.933837890625 0.0860595703125 Q 6.908203125 0.084228515625 6.87890625 0.082763671875 Q 6.8173828125 0.08056640625 6.77197265625 0.084228515625 Q 6.77197265625 0.14794921875 6.771240234375 0.2109375 Q 6.7705078125 0.28564453125 6.769775390625 0.362548828125 Q 6.767578125 0.569091796875 6.767578125 0.667236328125 Q 6.859130859375 0.667236328125 6.90234375 0.662841796875 Q 6.94921875 0.65771484375 6.9613037109375 0.667236328125 Q 6.973388671875 0.6767578125 6.973388671875 0.69287109375 Q 6.973388671875 0.733154296875 6.89794921875 0.731689453125 Q 6.882568359375 0.73095703125 6.8701171875 0.73095703125 L 6.810791015625 0.730224609375 L 6.767578125 0.730224609375 L 6.767578125 0.80126953125" fill="#212121" fill-rule="nonzero"></path></g><g></g><g clip-path="url(#SvgjsClipPath1001)"><g clip-path="url(#SvgjsClipPath10007136197f-99fe-4741-89cc-097d45c15ad8)"><path d=" M 4.30279791756802 -5.795069259038159 L 1.517781801163588 -3.012425612586177 L 1.517781801163588 -0.24981615684377623 L 5.617673486770604 -0.24981615684377623 L 5.61740987899811 -3.0124256125861764 L 4.30279791756802 -4.3257195351537945 L 3.937701152663132 -3.961149985793896 L 5.101265860453872 -2.7986397090931336 L 5.101265860453872 -0.765696567615521 L 2.033662211935331 -0.765696567615521 L 2.033662211935331 -2.7989033168656285 L 4.30279791756802 -5.065402944773372 L 6.140671307399701 -3.2291112015766585 L 6.140671307399701 -0.24981615684377623 L 6.657342541488928 -0.24981615684377623 L 6.657342541488928 -3.4426334972972064 Z M 2.8321301548211837 -5.795069259038159 L 0.47784913867277073 -3.442633497297207 L 0.47784913867277073 -0.24981615684377623 L 0.9942567649895035 -0.24981615684377623 L 0.9942567649895035 -3.2291112015766585 L 3.1972269197260714 -5.430236101905765 Z" fill="#769687" transform="matrix(1,0,0,1,0,0)" fill-rule="nonzero"></path></g></g></g><defs><clipPath id="SvgjsClipPath1001"><path d=" M 0.47797138049267485 -5.795069259038159 h 6.17931114526465 v 5.545069259038159 h -6.17931114526465 Z"></path></clipPath><clipPath id="SvgjsClipPath10007136197f-99fe-4741-89cc-097d45c15ad8"><path d=" M 0.47797138049267485 -5.795069259038159 L 6.657282525757325 -5.795069259038159 L 6.657282525757325 -0.25 L 0.47797138049267485 -0.25 Z"></path></clipPath></defs></svg>